# File created by Blade
# Date/Time:  Thu Jan 22 18:06:27 2015
# Frame Rate: 120.000 fps
#------------------------------------------------------
:FULLY-SPECIFIED
:DEGREES
2559
root 0.384172 32.983792 -2.153967 8.561050 -16.203681 -1.056610
RightUpLeg -16.356393 -19.240234 -6.116618
RightLeg 84.814321 -0.000000 -0.000000
RightFoot 2.168398 -2.628119 16.924467
RightToeBase -4.530697 -0.000000 0.000000
LeftUpLeg -3.792093 7.034211 -9.369475
LeftLeg 2.560823 -0.000000 -0.000000
LeftFoot -14.263725 10.147111 -5.862110
LeftToeBase 9.094571 -0.000000 -0.000000
Spine -9.187083 2.146298 -0.535734
RightShoulder -16.519310 -16.510230 -20.333406
RightArm 28.207579 17.936219 52.963204
RightForeArm -4.485880 -0.000000 21.636243
RightHand 11.845446 -0.000000 0.676209
RightHandThumb1 -24.326973 -0.000000 -32.862282
LeftShoulder -23.446872 8.376048 24.457824
LeftArm 2.085296 -45.323856 -50.920618
LeftForeArm 10.663819 -0.000000 68.856527
LeftHand -3.645235 -0.000000 34.463871
LeftHandThumb1 -26.253704 0.000000 33.147579
Head 15.559014 -1.961557 -2.038088
2560
root 0.395074 32.987123 -2.152574 8.574562 -15.892072 -1.063387
RightUpLeg -16.050738 -17.685536 -6.621179
RightLeg 84.847530 -0.000000 -0.000000
RightFoot 2.037656 -3.055428 16.749515
RightToeBase -5.018110 -0.000000 0.000000
LeftUpLeg -3.777719 6.812299 -9.341556
LeftLeg 2.515944 -0.000000 -0.000000
LeftFoot -14.183328 10.066325 -5.805757
LeftToeBase 9.140115 -0.000000 -0.000000
Spine -9.207611 1.950567 -0.473214
RightShoulder -16.533194 -16.482095 -20.363860
RightArm 28.079538 17.932374 52.930090
RightForeArm -4.594424 -0.000000 21.609320
RightHand 11.863381 0.000000 0.680942
RightHandThumb1 -24.326973 -0.000000 -32.862282
LeftShoulder -23.426367 8.294463 24.463024
LeftArm 2.198836 -45.178982 -50.990077
LeftForeArm 10.651857 -0.000000 68.814862
LeftHand -3.601556 0.000000 34.492240
LeftHandThumb1 -26.253704 0.000000 33.147579
Head 15.524009 -2.041379 -2.045905
2561
root 0.407007 32.989835 -2.154525 8.603165 -15.584393 -1.045263
RightUpLeg -15.780399 -16.047068 -7.138890
RightLeg 84.935567 -0.000000 -0.000000
RightFoot 1.968308 -3.293061 16.573555
RightToeBase -3.709958 -0.000000 0.000000
LeftUpLeg -3.800744 6.640284 -9.341906
LeftLeg 2.484710 -0.000000 -0.000000
LeftFoot -14.086242 9.928836 -5.761001
LeftToeBase 9.193050 -0.000000 -0.000000
Spine -9.241721 1.758894 -0.447897
RightShoulder -16.556717 -16.489197 -20.375177
RightArm 27.976550 17.928304 52.890245
RightForeArm -4.699737 0.000000 21.582868
RightHand 11.918949 -0.000000 0.540338
RightHandThumb1 -24.326973 -0.000000 -32.862282
LeftShoulder -23.405213 8.205701 24.478724
LeftArm 2.328309 -45.030923 -51.055595
LeftForeArm 10.624064 -0.000000 68.755127
LeftHand -3.596930 0.000000 34.448223
LeftHandThumb1 -26.253704 0.000000 33.147579
Head 15.469865 -2.124489 -2.012916
2562
root 0.416208 32.992513 -2.155538 8.625646 -15.234167 -1.062811
RightUpLeg -15.484915 -14.384343 -7.611529
RightLeg 85.025863 -0.000000 -0.000000
RightFoot 1.675286 -3.649047 16.737501
RightToeBase -2.993109 -0.000000 0.000000
LeftUpLeg -3.805167 6.467156 -9.297356
LeftLeg 2.456604 -0.000000 -0.000000
LeftFoot -14.008911 9.762707 -5.656137
LeftToeBase 9.233777 -0.000000 -0.000000
Spine -9.256835 1.566872 -0.381496
RightShoulder -16.613054 -16.513328 -20.374306
RightArm 27.867209 17.951798 52.852780
RightForeArm -4.787294 -0.000000 21.571041
RightHand 11.943423 -0.000000 0.546851
RightHandThumb1 -24.326973 -0.000000 -32.862282
LeftShoulder -23.344045 8.079889 24.506260
LeftArm 2.425687 -44.897646 -51.110690
LeftForeArm 10.613055 0.000000 68.694890
LeftHand -3.557147 -0.000000 34.402945
LeftHandThumb1 -26.253704 0.000000 33.147579
Head 15.392597 -2.212786 -1.989537
